<svg id="Layer_1" data-name="Layer 1" xmlns="http://www.w3.org/2000/svg" viewBox="0 0 417.88 152.47"><defs><style>.cls-1{fill:#003049;}</style></defs><path class="cls-1" d="M42.71,114.25q2.17-6.23,4.49-12a99.29,99.29,0,0,1,4.89-10.5L85.6,12.6A10.74,10.74,0,0,1,87.33,10a12.9,12.9,0,0,1,2.61-2.26,13.1,13.1,0,0,1,3.3-1.59A12.42,12.42,0,0,1,97,5.59h22.27L52.48,149.25H23.3L0,47.2H21.63a10.22,10.22,0,0,1,6.6,2h0a3.49,3.49,0,0,1,1.26,2Z"/><path class="cls-1" d="M175.1,130.31a106.12,106.12,0,0,1-10.59,9.22,58,58,0,0,1-10.65,6.41,50.53,50.53,0,0,1-11.64,3.7,71.37,71.37,0,0,1-13.46,1.18,43.61,43.61,0,0,1-16.66-3.1A37.83,37.83,0,0,1,99,138.94a39.27,39.27,0,0,1-8.48-13.65,49.93,49.93,0,0,1-3-17.75,69.53,69.53,0,0,1,1.83-16A67,67,0,0,1,94.6,76.92a62,62,0,0,1,8.33-12.62A55,55,0,0,1,114,54.4c4.11-2.76,8-4,13.61-4.91,5.06-.83,10.1-2.32,15.63-2.32a41.48,41.48,0,0,1,14.54,2.37c4.24,1.57,7.71,2.08,10.6,4.61A26.69,26.69,0,0,1,175,62.68a21.73,21.73,0,0,1,2.26,9.46,29.18,29.18,0,0,1-2.76,12.77q-2.76,5.78-9.61,10.31t-18.44,7.69a184.93,184.93,0,0,1-29.13,4.93q.19,10.44,4.58,15.28t13,4.83a31.15,31.15,0,0,0,7-.69,24,24,0,0,0,5.17-1.78,36.09,36.09,0,0,0,4-2.26l3.4-2.27a17.79,17.79,0,0,1,3.4-1.78,11.07,11.07,0,0,1,4-.69,6,6,0,0,1,2.86.74,9.54,9.54,0,0,1,2.47,1.93ZM141.38,66.23a17.79,17.79,0,0,0-13.31,6.06q-5.71,6.06-8.47,16.61A133,133,0,0,0,135,85.75a40.21,40.21,0,0,0,9.17-3.6,11.08,11.08,0,0,0,4.38-4.09,10,10,0,0,0,1.14-4.73,7.27,7.27,0,0,0-2-4.83C146.38,67,144.28,66.23,141.38,66.23Z"/><path class="cls-1" d="M213.71,68.1a65.25,65.25,0,0,1,8-11.34,36.61,36.61,0,0,1,8.73-7.34,21.18,21.18,0,0,1,9.17-3A19,19,0,0,1,249,48.28l-5.52,28.3A24.57,24.57,0,0,0,233,74.41a15.43,15.43,0,0,0-9,3.35,28.28,28.28,0,0,0-7.4,9.47A71.35,71.35,0,0,0,211,103.4l-5.52,45.85h-30L187.88,47h15.78c3.15,0,5.62.74,7.39,2.22s2.66,3.89,2.66,7.25Z"/><path class="cls-1" d="M255.3,127.16v-1.68c0-.65,0-1.59.15-2.81s.26-2.82.49-4.83.54-4.65.93-7.93L262.1,68.1h-8.18a4.45,4.45,0,0,1-3.45-1.53q-1.38-1.53-.89-4.48L251.84,50l16.09-1.65L275,22.06a6.52,6.52,0,0,1,6.7-4.74h16.56L294.54,47.2h22.87l-2.56,20.9H292L287,108.23c-.32,2.69-.59,4.82-.78,6.36s-.35,2.73-.45,3.55-.15,1.38-.15,1.67v.55a8.19,8.19,0,0,0,1.34,4.78,4.73,4.73,0,0,0,4.19,1.92,8.39,8.39,0,0,0,2.61-.34,10.69,10.69,0,0,0,1.82-.79c.53-.3,1-.56,1.48-.79a3.5,3.5,0,0,1,1.58-.35,2.8,2.8,0,0,1,2,.64,8,8,0,0,1,1.33,2L308.74,142a45.49,45.49,0,0,1-13.12,6.65,46.33,46.33,0,0,1-14.1,2.22,32.7,32.7,0,0,1-10.64-1.62,23.07,23.07,0,0,1-8.14-4.74,22,22,0,0,1-5.32-7.44A26.48,26.48,0,0,1,255.3,127.16Z"/><path class="cls-1" d="M360.5,1.65,350.34,84.37h2.08a8.53,8.53,0,0,0,4.09-.84,11.94,11.94,0,0,0,3.2-2.81l21.1-28.79a14.56,14.56,0,0,1,4.19-3.7A11.15,11.15,0,0,1,390.47,47h27.41L389.29,83.38a32,32,0,0,1-9.27,8,16.9,16.9,0,0,1,3.55,3.94,39.68,39.68,0,0,1,2.76,5l20.51,48.91H380.22a11.25,11.25,0,0,1-5.37-1.14,7.51,7.51,0,0,1-3.31-4l-14.19-36.19a6.92,6.92,0,0,0-2.32-3.2,8.14,8.14,0,0,0-4-.74h-3.16l-5.52,45.26H312.19L330.33,1.65Z"/></svg>